<svg xmlns="http://www.w3.org/2000/svg" width="129" height="51" fill="none"><path fill="#000" d="M66.847 32.545v-12.2h-4.48v-1.94h11.06v1.94h-4.46v12.2zm8.503 4.62v-2.04q.92 0 1.48-.22.579-.219.96-.72.38-.48.74-1.26l-4.56-10.92h2.42l3.3 8.54 2.66-8.54h2.3l-2.9 8.56q-.22.68-.52 1.48a20 20 0 0 1-.64 1.6 9.7 9.7 0 0 1-.78 1.48q-.44.68-.98 1.1-.44.36-.88.56-.44.22-1.04.3t-1.56.08m10.713-4.62v-10.54h2.06v7.46q.14-.24.36-.52.22-.3.34-.48l4.82-6.46h1.92v10.54h-2.06v-7.42q-.16.26-.34.52-.18.24-.34.44l-4.82 6.46zm4.9-11.82q-1.641 0-2.58-.72-.92-.74-.94-2.18h1.8q.04.72.5 1.04t1.24.32 1.24-.32.5-1.04h1.8q0 .94-.44 1.6-.44.64-1.24.98-.78.32-1.88.32m7.112 11.82v-10.54h7.379v1.84h-5.32v8.7zm9.442 4.62v-2.04q.92 0 1.48-.22.58-.219.96-.72.38-.48.74-1.26l-4.56-10.92h2.42l3.3 8.54 2.66-8.54h2.3l-2.9 8.56q-.22.68-.52 1.48a20 20 0 0 1-.64 1.6 9.6 9.6 0 0 1-.78 1.48 4.4 4.4 0 0 1-.98 1.1q-.44.36-.88.56-.44.22-1.04.3t-1.56.08m10.714-4.62v-10.54h2.06v4.44h4.86v-4.44h2.06v10.54h-2.06v-4.28h-4.86v4.28z"/><path fill="#FF0909" d="M10.664 29.673 1.855 43.118H.928L1.39 6.491l2.782-4.173 4.173-.927h17.618l-2.318 4.173 1.39 5.1-.463 9.273v5.1l1.391 6.49z"/><path fill="#008DDC" d="M44.045 1.391H26.426l-2.781 2.782.927 5.1.463 6.027-.463 4.173v3.709l2.318 7.882 8.345 8.345L47.754 45.9l2.318-.927V7.882l-1.855-4.173z"/><path fill="#00C54F" d="M8.345 34.309 2.78 47.291l2.782 2.318 4.636.464 34.773-.464 2.782-2.318-12.982-7.882-8.345-7.882-11.128-1.39z"/><path stroke="#04BE00" stroke-width="2" d="M26.426 31.527s-10.122-4.422-15.763-1.855C4.1 32.66 1.853 45.9 1.853 45.9"/><path stroke="#04BE00" stroke-width="2" d="M23.183 17.619s-.1 7.372 1.447 11.607c1.927 5.275 4.82 7.913 9.642 11.606 4.022 3.081 13.019 7.387 13.019 7.387"/><path fill="#04BE00" d="m36.611 14.836.999-.051a1 1 0 0 0-1.567-.771zm-.519 9.325a1 1 0 1 0 1.997-.104zm-12.342.771 13.43-9.273-1.137-1.646-13.43 9.273zm11.862-10.044.48 9.273 1.997-.104-.48-9.272z"/><path fill="#04BE00" d="m10.663 17.38-.999.052a1 1 0 0 0 .46.792zm.535-9.086a1 1 0 0 0-1.997.103zm13.448 16.827-13.445-8.583-1.076 1.686 13.445 8.583zm-12.984-7.792-.464-9.035-1.997.103.463 9.035z"/><path stroke="#1BA018" stroke-width="2" d="M27.356 32.454s-10.122-4.422-15.764-1.855C5.03 33.586 2.783 46.827 2.783 46.827"/><path stroke="#1BA018" stroke-width="2" d="M24.113 18.546s-.101 6.925 1.446 10.903c1.928 4.957 4.82 7.434 9.642 10.904 4.023 2.894 13.02 6.938 13.02 6.938"/><path fill="#1BA018" d="m37.556 15.3.999-.05a1 1 0 0 0-1.58-.763zm-.535 9.323a1 1 0 1 0 1.997-.1zm-11.865.764 12.981-9.273-1.162-1.627-12.982 9.272zM36.557 15.35l.464 9.273 1.997-.1-.463-9.273z"/><path fill="#1BA018" d="m11.593 16.929-1 .049a1 1 0 0 0 .442.781zm.535-9.56a1 1 0 0 0-1.998.098zm13.468 17.765L12.15 16.099l-1.115 1.66 13.445 9.035zM12.59 16.88l-.463-9.51-1.998.097.464 9.51z"/><path stroke="#038700" stroke-width="2" d="M28.282 32.917s-10.122-4.422-15.764-1.854C5.955 34.05 3.71 47.29 3.71 47.29M25.038 19.01s-.096 6.478 1.392 10.2c1.853 4.636 4.634 6.954 9.27 10.2 3.869 2.707 12.52 6.49 12.52 6.49"/><path fill="#038700" d="m38.482 15.764.999-.05a1 1 0 0 0-1.58-.764zm-.535 9.322a1 1 0 0 0 1.997-.1zm-11.866.764 12.982-9.273-1.162-1.627-12.982 9.273zm11.402-10.036.464 9.272 1.997-.1-.463-9.272z"/><path fill="#038700" d="m12.055 16.227-.998.05a1 1 0 0 0 .45.787zm.536-9.322a1 1 0 1 0-1.998.1zM26.049 24.2l-13.445-8.81-1.097 1.674 13.446 8.809zm-12.995-8.023-.463-9.272-1.998.1.464 9.272z"/><path stroke="#118716" stroke-width="2" d="M25.499 11.59s-1.854-3.353-1.854-5.563c-.001-3.065 2.781-5.1 2.781-5.1"/><rect width="49" height="49" x="1" y="1" stroke="#118716" stroke-width="2" rx="9"/><circle cx="23.181" cy="14.837" r="4.636" fill="#04BE00"/><circle cx="24.109" cy="14.837" r="4.636" fill="#1BA018"/><circle cx="25.037" cy="14.837" r="4.386" fill="#fff" stroke="#038700" stroke-width=".5"/></svg>