<svg width="129" height="51" viewBox="0 0 129 51" fill="none" xmlns="http://www.w3.org/2000/svg">
<path d="M66.847 32.5454V20.3454H62.367V18.4054H73.427V20.3454H68.967V32.5454H66.847ZM75.3495 37.1654V35.1254C75.9628 35.1254 76.4561 35.0521 76.8295 34.9054C77.2161 34.7587 77.5361 34.5187 77.7895 34.1854C78.0428 33.8654 78.2895 33.4454 78.5295 32.9254L73.9695 22.0054H76.3895L79.6895 30.5454L82.3495 22.0054H84.6495L81.7495 30.5654C81.6028 31.0187 81.4295 31.5121 81.2295 32.0454C81.0428 32.5787 80.8295 33.1121 80.5895 33.6454C80.3628 34.1787 80.1028 34.6721 79.8095 35.1254C79.5161 35.5787 79.1895 35.9454 78.8295 36.2254C78.5361 36.4654 78.2428 36.6521 77.9495 36.7854C77.6561 36.9321 77.3095 37.0321 76.9095 37.0854C76.5095 37.1387 75.9895 37.1654 75.3495 37.1654ZM86.0627 32.5454V22.0054H88.1227V29.4654C88.2161 29.3054 88.3361 29.1321 88.4827 28.9454C88.6294 28.7454 88.7427 28.5854 88.8227 28.4654L93.6427 22.0054H95.5627V32.5454H93.5027V25.1254C93.3961 25.2987 93.2827 25.4721 93.1627 25.6454C93.0427 25.8054 92.9294 25.9521 92.8227 26.0854L88.0027 32.5454H86.0627ZM90.9627 20.7254C89.8694 20.7254 89.0094 20.4854 88.3827 20.0054C87.7694 19.5121 87.4561 18.7854 87.4427 17.8254H89.2427C89.2694 18.3054 89.4361 18.6521 89.7427 18.8654C90.0494 19.0787 90.4627 19.1854 90.9827 19.1854C91.5027 19.1854 91.9161 19.0787 92.2227 18.8654C92.5294 18.6521 92.6961 18.3054 92.7227 17.8254H94.5227C94.5227 18.4521 94.3761 18.9854 94.0827 19.4254C93.7894 19.8521 93.3761 20.1787 92.8427 20.4054C92.3227 20.6187 91.6961 20.7254 90.9627 20.7254ZM98.0745 32.5454V22.0054H105.454V23.8454H100.134V32.5454H98.0745ZM107.517 37.1654V35.1254C108.131 35.1254 108.624 35.0521 108.997 34.9054C109.384 34.7587 109.704 34.5187 109.957 34.1854C110.211 33.8654 110.457 33.4454 110.697 32.9254L106.137 22.0054H108.557L111.857 30.5454L114.517 22.0054H116.817L113.917 30.5654C113.771 31.0187 113.597 31.5121 113.397 32.0454C113.211 32.5787 112.997 33.1121 112.757 33.6454C112.531 34.1787 112.271 34.6721 111.977 35.1254C111.684 35.5787 111.357 35.9454 110.997 36.2254C110.704 36.4654 110.411 36.6521 110.117 36.7854C109.824 36.9321 109.477 37.0321 109.077 37.0854C108.677 37.1387 108.157 37.1654 107.517 37.1654ZM118.231 32.5454V22.0054H120.291V26.4454H125.151V22.0054H127.211V32.5454H125.151V28.2654H120.291V32.5454H118.231Z" fill="black"/>
<path d="M10.6641 29.6729L1.85501 43.1184H0.927734L1.39137 6.49111L4.17319 2.31839L8.34592 1.39111H25.9641L23.6459 5.56384L25.0368 10.6638L24.5732 19.9366V25.0366L25.9641 31.5275L10.6641 29.6729Z" fill="#FF0909"/>
<path d="M44.0445 1.39111H26.4263L23.6445 4.17293L24.5718 9.27293L25.0354 15.3002L24.5718 19.4729V23.182L26.89 31.0638L35.2354 39.4093L47.7536 45.9002L50.0718 44.9729V7.88202L48.2173 3.7093L44.0445 1.39111Z" fill="#008DDC"/>
<path d="M8.34489 34.309L2.78125 47.2908L5.56307 49.609L10.1994 50.0726L44.9722 49.609L47.754 47.2908L34.7722 39.409L26.4267 31.5271L15.2994 30.1362L8.34489 34.309Z" fill="#00C54F"/>
<path d="M26.4262 31.5267C26.4262 31.5267 16.3043 27.1045 10.6626 29.6722C4.09964 32.6591 1.85352 45.8994 1.85352 45.8994" stroke="#04BE00" stroke-width="2"/>
<path d="M23.183 17.6187C23.183 17.6187 23.0822 24.9907 24.6296 29.2255C26.5574 34.5014 29.4498 37.1393 34.2715 40.8324C38.2941 43.9135 47.2907 48.2187 47.2907 48.2187" stroke="#04BE00" stroke-width="2"/>
<path d="M36.6111 14.8364L37.6098 14.7848C37.5911 14.4228 37.3779 14.0993 37.0527 13.9392C36.7275 13.7792 36.3412 13.8076 36.0429 14.0135L36.6111 14.8364ZM36.0921 24.1608C36.1206 24.7124 36.5908 25.1363 37.1424 25.1078C37.6939 25.0793 38.1179 24.609 38.0894 24.0575L36.0921 24.1608ZM23.7498 24.932L37.1793 15.6593L36.0429 14.0135L22.6134 23.2863L23.7498 24.932ZM35.6124 14.8881L36.0921 24.1608L38.0894 24.0575L37.6098 14.7848L35.6124 14.8881Z" fill="#04BE00"/>
<path d="M10.6629 17.3807L9.66417 17.4319C9.68073 17.7547 9.85232 18.0496 10.1248 18.2236L10.6629 17.3807ZM11.1979 8.29445C11.1696 7.7429 10.6995 7.31871 10.148 7.34702C9.59641 7.37532 9.17223 7.84539 9.20053 8.39695L11.1979 8.29445ZM24.6464 25.121L11.2009 16.5378L10.1248 18.2236L23.5702 26.8068L24.6464 25.121ZM11.6615 17.3294L11.1979 8.29445L9.20053 8.39695L9.66417 17.4319L11.6615 17.3294Z" fill="#04BE00"/>
<path d="M27.3559 32.454C27.3559 32.454 17.234 28.0318 11.5923 30.5994C5.02932 33.5863 2.7832 46.8267 2.7832 46.8267" stroke="#1BA018" stroke-width="2"/>
<path d="M24.1127 18.5459C24.1127 18.5459 24.0119 25.4712 25.5593 29.4493C27.4871 34.4055 30.3795 36.8835 35.2012 40.3528C39.2237 43.2471 48.2204 47.2914 48.2204 47.2914" stroke="#1BA018" stroke-width="2"/>
<path d="M37.556 15.3003L38.5548 15.2504C38.5365 14.8852 38.3204 14.5591 37.9913 14.4C37.6621 14.2408 37.2723 14.274 36.9748 14.4866L37.556 15.3003ZM37.0209 24.623C37.0485 25.1746 37.518 25.5994 38.0696 25.5718C38.6212 25.5442 39.046 25.0747 39.0184 24.5231L37.0209 24.623ZM25.1555 25.3868L38.1373 16.114L36.9748 14.4866L23.993 23.7593L25.1555 25.3868ZM36.5573 15.3502L37.0209 24.623L39.0184 24.5231L38.5548 15.2504L36.5573 15.3502Z" fill="#1BA018"/>
<path d="M11.5925 16.9289L10.5937 16.9776C10.6091 17.2931 10.7726 17.5828 11.0348 17.759L11.5925 16.9289ZM12.1277 7.36976C12.1008 6.81814 11.6318 6.39275 11.0802 6.41964C10.5286 6.44654 10.1032 6.91552 10.1301 7.46715L12.1277 7.36976ZM25.5957 25.1339L12.1503 16.0989L11.0348 17.759L24.4803 26.7939L25.5957 25.1339ZM12.5914 16.8803L12.1277 7.36976L10.1301 7.46715L10.5937 16.9776L12.5914 16.8803Z" fill="#1BA018"/>
<path d="M28.2817 32.9173C28.2817 32.9173 18.1598 28.4952 12.5181 31.0628C5.95511 34.0497 3.70898 47.2901 3.70898 47.2901" stroke="#038700" stroke-width="2"/>
<path d="M25.0384 19.0093C25.0384 19.0093 24.9415 25.4877 26.4295 29.2093C28.2832 33.8456 31.0644 36.1638 35.7008 39.4093C39.5688 42.1169 48.2198 45.9002 48.2198 45.9002" stroke="#038700" stroke-width="2"/>
<path d="M38.4818 15.7637L39.4806 15.7137C39.4623 15.3486 39.2462 15.0225 38.917 14.8634C38.5879 14.7042 38.1981 14.7374 37.9006 14.9499L38.4818 15.7637ZM37.9467 25.0863C37.9743 25.6379 38.4438 26.0627 38.9954 26.0352C39.547 26.0076 39.9718 25.5381 39.9442 24.9865L37.9467 25.0863ZM26.0812 25.8501L39.0631 16.5774L37.9006 14.9499L24.9188 24.2227L26.0812 25.8501ZM37.4831 15.8136L37.9467 25.0863L39.9442 24.9865L39.4806 15.7137L37.4831 15.8136Z" fill="#038700"/>
<path d="M12.0554 16.2273L11.0567 16.2773C11.0726 16.5964 11.2401 16.8887 11.5074 17.0638L12.0554 16.2273ZM12.5905 6.90465C12.563 6.35306 12.0935 5.92826 11.5419 5.95584C10.9903 5.98342 10.5655 6.45293 10.593 7.00453L12.5905 6.90465ZM26.0489 24.1999L12.6035 15.3909L11.5074 17.0638L24.9529 25.8729L26.0489 24.1999ZM13.0542 16.1774L12.5905 6.90465L10.593 7.00453L11.0567 16.2773L13.0542 16.1774Z" fill="#038700"/>
<path d="M25.4986 11.5909C25.4986 11.5909 23.645 8.23738 23.6445 6.02725C23.6439 2.96174 26.4263 0.927246 26.4263 0.927246" stroke="#118716" stroke-width="2"/>
<rect x="1" y="1" width="49" height="49" rx="9" stroke="#118716" stroke-width="2"/>
<circle cx="23.1813" cy="14.8366" r="4.63636" fill="#04BE00"/>
<circle cx="24.109" cy="14.8366" r="4.63636" fill="#1BA018"/>
<circle cx="25.0368" cy="14.8366" r="4.38636" fill="white" stroke="#038700" stroke-width="0.5"/>
</svg>
